/* XPM */
static char *adon32[] = {
/* columns rows colors chars-per-pixel */
"32 32 101 2 ",
"   c #00153E",
".  c #021E3A",
"X  c #022037",
"o  c #02203B",
"O  c #0B2439",
"+  c #172C35",
"@  c #1D3232",
"#  c #18333D",
"$  c #323E2F",
"%  c #202F31",
"&  c #253233",
"*  c #243A31",
"=  c #2B3D37",
"-  c #233B3A",
";  c #2D3B39",
":  c #503D30",
">  c #36472C",
",  c #3E462B",
"<  c #7A691E",
"1  c #42492B",
"2  c #4E4C29",
"3  c #4F5127",
"4  c #49542F",
"5  c #545527",
"6  c #5A5426",
"7  c #475230",
"8  c #685F22",
"9  c #52612F",
"0  c #5F6329",
"q  c #646423",
"w  c #6A6120",
"e  c #6A6826",
"r  c #686F29",
"t  c #746420",
"y  c #726B26",
"u  c #000345",
"i  c #000B42",
"p  c #00024C",
"a  c #000B4D",
"s  c #001140",
"d  c #091641",
"f  c #001C46",
"g  c #001449",
"h  c #001948",
"j  c #000151",
"k  c #000058",
"l  c #002144",
"z  c #0C2C40",
"x  c #102144",
"c  c #172A41",
"v  c #836B1D",
"b  c #886F1B",
"n  c #8B721A",
"m  c #807A1D",
"M  c #897D1F",
"N  c #A27F16",
"B  c #817921",
"V  c #93821C",
"C  c #9A8818",
"Z  c #BA8B0F",
"A  c #AB8313",
"S  c #AC8F14",
"D  c #B28314",
"F  c #B68D10",
"G  c #BB8F10",
"H  c #AB9314",
"J  c #B39614",
"K  c #B99110",
"L  c #BA9D12",
"P  c #CD970C",
"I  c #C19C0F",
"U  c #CD9A0C",
"Y  c #D0990B",
"T  c #C4A20E",
"R  c #C9AD0F",
"E  c #DFA307",
"W  c #DCA308",
"Q  c #D7AC09",
"!  c #CDB50E",
"~  c #D2B30B",
"^  c #DCB509",
"/  c #E3A407",
"(  c #FFAF00",
")  c #E0B407",
"_  c #EBBD06",
"`  c #E2BA08",
"'  c #F1B203",
"]  c #FEB500",
"[  c #F7BA02",
"{  c #FFBC00",
"}  c #D0C009",
"|  c #F3C303",
" . c #FFC300",
".. c #FFCB00",
"X. c #FFD300",
"o. c #FFDC00",
"O. c #FFE300",
"+. c #FFEC00",
"@. c #FFF100",
"#. c #FFFC00",
"$. c None",
/* pixels */
"$.$.$.$.$.$.$.$.$.$.$.$.$.$.$.$.$.$.$.$.$.$.$.$.$.$.$.$.$.$.$.$.",
"$.$.$.$.$.$.$.$.$.$.$.$.l l l l l l l l $.$.$.$.$.$.$.$.$.$.$.$.",
"$.$.$.$.$.$.$.$.$.l l l l l l l l l l l l l l $.$.$.$.$.$.$.$.$.",
"$.$.$.$.$.$.$.l l l l l l l l f f l l l l l l l l $.$.$.$.$.$.$.",
"$.$.$.$.$.$.l l l l l l l l f h h h l l l l l l l l $.$.$.$.$.$.",
"$.$.$.$.$.l l l l l l l l l j y I i f l l l l l l l l $.$.$.$.$.",
"$.$.$.$.l l l l l l l l l l a ^ +.% i . l l l l l l l l $.$.$.$.",
"$.$.$.l l l l l l l l l l a - o.O.v p . X o o l l l l l l $.$.$.",
"$.$.$.l l l l l l l l l l j V @.../     X . . o . l l l l $.$.$.",
"$.$.l l l l l l l l l l h f ` O.{ ..1 u o . o o . . o . o l $.$.",
"$.$.l l l l l l l l l l j 4 +...{ X.A u . o .     i   o . o $.$.",
"$.l l l l l l l l l l l j J +...{ { { X p u i s O $ + . o . . $.",
"$.l l l l l l l l l l p z X.X.X. .( ..b : < N P ' o.6 u . . o $.",
"$.l l l l l l a p j a k B +.X...] { ] { X.o.X. .[ P O   . o . $.",
"$.l l l l l g ; r V L ~ X.X.+.m , X.] { W F G K T $ u . . o . $.",
"$.l l l l g c o.#.@.o.o.X...O.* u '  .{ / W  .o.o.&   o . . o $.",
"$.l l l l a # R H S C ^ X.O.W   p b X.]  .' Y H 8   . X . . o $.",
"$.l l l f h V ! ` X.X.X...+.q u   @ { { X.n p u u   o . o . . $.",
"$.l l l j 4 #.+...L ) X.o.| .   o u Z X. ./   s . . . o . o o $.",
"$.l l l h - 9 = d   ^ o.@.V u   . u , ..] X.8 u . . X . o . . $.",
"$.l l l l f p a k e @.X.o.* p   s i u P ..../     o o . . . o $.",
"$.$.l l l l l h h _ o.+.I p 2 L G F D E  .] X.5 u X . o . X $.$.",
"$.$.l l l l l j 0 +...+.> u { o.....X.{ ] ] ..Y i . . . . . $.$.",
"$.$.$.l l f h x X.#.#.[ p w +..... ... . .....O.6 u o . o $.$.$.",
"$.$.$.l l l g - ^ ! } 5 p < ~ P Y Y Y Y Y Y Y ~ < u o . o $.$.$.",
"$.$.$.$.l l l f h h s i X                         o . . $.$.$.$.",
"$.$.$.$.$.l l l h h h l o o   . .     . .     . o X o $.$.$.$.$.",
"$.$.$.$.$.$.l l l l l l l l l l o X o X o X o . X o $.$.$.$.$.$.",
"$.$.$.$.$.$.$.l l l l l l l l l l l o o . . . . o $.$.$.$.$.$.$.",
"$.$.$.$.$.$.$.$.$.l l l l l l l l l l l l o o $.$.$.$.$.$.$.$.$.",
"$.$.$.$.$.$.$.$.$.$.$.l l l l l l l l l l $.$.$.$.$.$.$.$.$.$.$.",
"$.$.$.$.$.$.$.$.$.$.$.$.$.$.$.$.$.$.$.$.$.$.$.$.$.$.$.$.$.$.$.$."
};
