/* XPM */
static char *adon64[] = {
/* columns rows colors chars-per-pixel */
"48 48 123 2 ",
"   c #000D3F",
".  c #00133E",
"X  c #021F3A",
"o  c #0E2637",
"O  c #02203B",
"+  c #0E2539",
"@  c #112A36",
"#  c #182836",
"$  c #102638",
"%  c #102D3F",
"&  c #1E3433",
"*  c #1D323C",
"=  c #2E3E2F",
"-  c #353F2E",
";  c #243435",
":  c #213A3A",
">  c #2C3C3A",
",  c #303E38",
"<  c #35422E",
"1  c #3C422D",
"2  c #314436",
"3  c #374A34",
"4  c #3C4B33",
"5  c #756E1F",
"6  c #7A691E",
"7  c #7C751E",
"8  c #44452B",
"9  c #454D29",
"0  c #594A2A",
"q  c #525327",
"w  c #595027",
"e  c #5B5A25",
"r  c #555C2C",
"t  c #434C33",
"y  c #465331",
"u  c #675E23",
"i  c #5B622B",
"p  c #6E6121",
"a  c #6A6924",
"s  c #746620",
"d  c #726D25",
"f  c #777421",
"g  c #7F7622",
"h  c #7B7F23",
"j  c #000344",
"k  c #000C41",
"l  c #00034C",
"z  c #000C4C",
"x  c #001143",
"c  c #001D45",
"v  c #001449",
"b  c #001948",
"n  c #000350",
"m  c #000058",
"M  c #002144",
"N  c #092543",
"B  c #8B6F1C",
"V  c #85721E",
"C  c #8C721A",
"Z  c #8A7C1E",
"A  c #9B7D17",
"S  c #94741A",
"D  c #957818",
"F  c #9E7819",
"G  c #A47F15",
"H  c #A37A18",
"J  c #847921",
"K  c #8D821F",
"L  c #9D8517",
"P  c #94841C",
"I  c #988618",
"U  c #9D951B",
"Y  c #BD8F0F",
"T  c #BD910F",
"R  c #BD9B0F",
"E  c #A38315",
"W  c #AB8613",
"Q  c #A38C15",
"!  c #AD8913",
"~  c #A38E18",
"^  c #B08712",
"/  c #B38B12",
"(  c #AC9216",
")  c #B39412",
"_  c #B99010",
"`  c #BA9A12",
"'  c #BCA20E",
"]  c #BDAC0F",
"[  c #BDB110",
"{  c #C3920E",
"}  c #C9960C",
"|  c #CD9A0C",
" . c #D2990B",
".. c #D99E0A",
"X. c #CBA60D",
"o. c #CCAA0C",
"O. c #DCA109",
"+. c #D3AB0B",
"@. c #CDB00E",
"#. c #DFB307",
"$. c #D4B00B",
"%. c #DBB608",
"&. c #C2A310",
"*. c #ECAB04",
"=. c #F3AE02",
"-. c #E1B707",
";. c #EEBF04",
":. c #E0B608",
">. c #E2BB08",
",. c #F4B202",
"<. c #FFB600",
"1. c #FFBB00",
"2. c #EDC004",
"3. c #F5C502",
"4. c #FFC400",
"5. c #FFCC00",
"6. c #FFD300",
"7. c #FFDB00",
"8. c #FFE300",
"9. c #FFEA00",
"0. c #FFF500",
"q. c #FFFD00",
"w. c None",
/* pixels */
"w.w.w.w.w.w.w.w.w.w.w.w.w.w.w.w.w.w.w.w.w.w.w.w.w.w.w.w.w.w.w.w.w.w.w.w.w.w.w.w.w.w.w.w.w.w.w.w.",
"w.w.w.w.w.w.w.w.w.w.w.w.w.w.w.w.w.w.M M M M M M M M M M M w.w.w.w.w.w.w.w.w.w.w.w.w.w.w.w.w.w.w.",
"w.w.w.w.w.w.w.w.w.w.w.w.w.w.w.M M M M M M M M M M M M M M M M M w.w.w.w.w.w.w.w.w.w.w.w.w.w.w.w.",
"w.w.w.w.w.w.w.w.w.w.w.w.w.M M M M M M M M M M M M M M M M M M M M M w.w.w.w.w.w.w.w.w.w.w.w.w.w.",
"w.w.w.w.w.w.w.w.w.w.w.M M c M M M M M M M M M M M M M M M M M M M M M M w.w.w.w.w.w.w.w.w.w.w.w.",
"w.w.w.w.w.w.w.w.w.w.M M M M M M M M M M M M M b c M M M M M M M M M M M M w.w.w.w.w.w.w.w.w.w.w.",
"w.w.w.w.w.w.w.w.M M M M M M M M M M M M M M c b b M M M M M M M M M M M M M M w.w.w.w.w.w.w.w.w.",
"w.w.w.w.w.w.w.M M M M M M M M M M M M M M v N @.s z M M M M M M M M M M M M M M w.w.w.w.w.w.w.w.",
"w.w.w.w.w.w.M M M M M M M M M M M M M M M n i q.=.X X X c M M M M M M M M M M M M w.w.w.w.w.w.w.",
"w.w.w.w.w.w.M M M M M M M M M M M M M M c z &.8.4.9 j O X O M M M M M M M M M M M w.w.w.w.w.w.w.",
"w.w.w.w.w.M M M M M M M M M M M M M M M z : 7.5.5.W k X X O X X O O M M M M M M M M w.w.w.w.w.w.",
"w.w.w.w.M M M M M M M M M M M M M M M M n J 9.4.1.1.@ k X X X X X X X O M M M M M M M w.w.w.w.w.",
"w.w.w.w.M M M M M M M M M M M M M M M b c #.8.4.<.6.p j O X X X O X X O O X O O M M M w.w.w.w.w.",
"w.w.w.M M M M M M M M M M M M M M M M z y 7.6.4.<.4.... X X X X X X X X X X X O X M M M w.w.w.w.",
"w.w.w.M M M M M M M M M M M M M M M M l ( 9.5.4.<.<.4.=   X X X X X X X X X X X X X X M w.w.w.w.",
"w.w.M M M M M M M M M M M M M M M M b N 5.7.5.4.<.<.6.D j X X X O X X X X X X X X X X X X w.w.w.",
"w.w.M M M M M M M M M M M M M M M M n d 9.5.6.4.<.1.4.*.O . X X X . k j k k k X O O X O X w.w.w.",
"w.M M M M M M M M M M M M M M M M c v +.8.5.5.4.<.<.<.5.q l j k O O < w s _ W o . O X X X O w.w.",
"w.M M M M M M M M M M M M M M M M z 2 7.6.5.6.4.<.<.<.4.T 0 B G O.*.1.5.5.7.4.+ . X X X X O w.w.",
"w.M M M M M M M M M M M c c b z n m P 9.4.5.6.6.1.<.<.<.4.4.6.5.4.4.4.4.4.8.6 j O X X O X X w.w.",
"w.M M M M M M M M M v n v v N > t d 3.7.5.5.6.a } 4.<.<.1.<.4.4.,.O.| / E 6 X . O O X X O X w.w.",
"w.M M M M M M M M v , h ~ X.>.6.7.8.6.4.5.8.-.l u 6.<.<.<.1.! F A H W / ' 8 j X X X X X X X O w.",
"M M M M M M M M c v :.q.8.8.8.8.7.5.5.5.4.9.f l @ ,.1.<.<.<.|  .,.4.4.4.7.q   X X X X O X X X w.",
"M M M M M M M M z r 0.7.6.2.o.) X.6.6.5.7.5.o k j E 6.<.<.<.1.4.4.5.5.7.| . X X X O X X o X X w.",
"M M M M M M M M z : ~ K f J g V X.7.5.4.9.Q j X k < 4.1.<.<.1.,...W D e # . O X X X X X X X O w.",
"w.M M M M M M v N K ~ &.+.3.7.8.7.4.5.6.7.< j X X x } 5.<.<.4.W k k k j . O X X X X O X X X O w.",
"w.M M M M M M n J q.8.8.8.9.8.4.5.5.5.9.o.  X X X j e 5.<.<.4.,.o   O X O X X X O X O X X O w.w.",
"w.M M M M M b N 6.0.7.4.%.` I 3.6.5.4.9.e j X X X . X =.4.<.1.6.S j O X O O O X X X X X X X w.w.",
"w.M M M M M c N d d 4 : O l < 8.6.5.7.2.X . X X X O j C 6.<.<.4.,.o . X X X X X X X X X X X w.w.",
"w.M M M M M M M z l z v v k +.8.4.5.9.Z j O X X X O   # 1.1.<.<.6.6 j O X X X X O X X O O X w.w.",
"w.w.M M M M M M M M M M l y 8.6.5.6.6.&   k k k   k k l A 5.<.<.4.*.X . X O X X X X X X X w.w.w.",
"w.w.M M M M M M M M M b z o.9.4.5.9.) k   8 L A A A A S } 4.<.<.<.5.u j O X X X X X + X X w.w.w.",
"w.w.M M M M M M M M M z 3 8.6.4.5.8.9 l ; 4.6.5.5.4.5.6.4.<.<.<.<.4.O.. . O O X X O X O O w.w.w.",
"w.w.w.M M M M M M M M n ` 8.5.5.8.#.. j C 6.<.<.1.<.1.<.<.<.<.<.<.<.6.9 j X X X X X X X w.w.w.w.",
"w.w.w.M M M M M M M z 2 7.6.5.5.9.s j o =.4.1.1.<.1.<.<.1.<.<.1.<.1.5.{   X X X X O X O w.w.w.w.",
"w.w.w.w.M M M M M c z &.q.8.8.0.6.$ j u 9.4.4.5.4.5.5.4.4.5.5.4.5.4.6.7.9 k X X X X X w.w.w.w.w.",
"w.w.w.w.w.M M M M M v g [ R ' ] q k . < R Y Y Y T T Y Y Y Y Y Y Y Y T R - k X O X X O w.w.w.w.w.",
"w.w.w.w.w.M M M M M M v z v x     X O .   . .   x . .   . x   k x .   k X O X X X X w.w.w.w.w.w.",
"w.w.w.w.w.w.M M M M M M c c M c c O X X X X X X X X X X X X X X X X X X X X X X O w.w.w.w.w.w.w.",
"w.w.w.w.w.w.w.M M M M M M M M M M M c X X X O X X X X X X X X X X X X X X X X X w.w.w.w.w.w.w.w.",
"w.w.w.w.w.w.w.w.M M M M M M M M M M M M M M c X X X X X X X X X O X X X O X X w.w.w.w.w.w.w.w.w.",
"w.w.w.w.w.w.w.w.w.M M M M M M M M M M M M M M M O O X X X O X X X X X O X X w.w.w.w.w.w.w.w.w.w.",
"w.w.w.w.w.w.w.w.w.w.M M M M M M M M M M M M M M M M M M X O X X X X X X O w.w.w.w.w.w.w.w.w.w.w.",
"w.w.w.w.w.w.w.w.w.w.w.w.M M M M M M M M M M M M M M M M M O M X O X X w.w.w.w.w.w.w.w.w.w.w.w.w.",
"w.w.w.w.w.w.w.w.w.w.w.w.w.w.M M M M M M M M M M M M M M M M M M O w.w.w.w.w.w.w.w.w.w.w.w.w.w.w.",
"w.w.w.w.w.w.w.w.w.w.w.w.w.w.w.w.w.M M M M M M M M M M M M M w.w.w.w.w.w.w.w.w.w.w.w.w.w.w.w.w.w.",
"w.w.w.w.w.w.w.w.w.w.w.w.w.w.w.w.w.w.w.w.M M M M M M M w.w.w.w.w.w.w.w.w.w.w.w.w.w.w.w.w.w.w.w.w.",
"w.w.w.w.w.w.w.w.w.w.w.w.w.w.w.w.w.w.w.w.w.w.w.w.w.w.w.w.w.w.w.w.w.w.w.w.w.w.w.w.w.w.w.w.w.w.w.w."
};
