/* XPM */
static char *adon16[] = {
/* columns rows colors chars-per-pixel */
"16 16 127 2 ",
"   c #00103F",
".  c #00143D",
"X  c #00153D",
"o  c #00163C",
"O  c #01173C",
"+  c #01143E",
"@  c #001B3A",
"#  c #021F39",
"$  c #001D3B",
"%  c #021D3B",
"&  c #021F3A",
"*  c #021F3B",
"=  c #041E39",
"-  c #0B2736",
";  c #0C2536",
":  c #012039",
">  c #032338",
",  c #02203B",
"<  c #072038",
"1  c #02203C",
"2  c #02203D",
"3  c #172837",
"4  c #172D35",
"5  c #192F33",
"6  c #182C35",
"7  c #1B3034",
"8  c #1A313C",
"9  c #1C313E",
"0  c #202038",
"q  c #74601F",
"w  c #46472B",
"e  c #424D2B",
"r  c #5B5325",
"t  c #5B5226",
"y  c #5B5426",
"u  c #5D5525",
"i  c #695F21",
"p  c #665429",
"a  c #646024",
"s  c #6F6424",
"d  c #6C6725",
"f  c #696728",
"g  c #000741",
"h  c #000542",
"j  c #000743",
"k  c #000047",
"l  c #000445",
"z  c #000744",
"x  c #000C40",
"c  c #000D41",
"v  c #00004F",
"b  c #00014F",
"n  c #00064F",
"m  c #000848",
"M  c #000A4D",
"N  c #00084E",
"B  c #001940",
"V  c #001F41",
"C  c #001E43",
"Z  c #001847",
"A  c #001B47",
"S  c #001F45",
"D  c #001E46",
"F  c #00104B",
"G  c #001648",
"H  c #00154A",
"J  c #001848",
"K  c #000151",
"L  c #000052",
"P  c #000057",
"I  c #012141",
"U  c #002240",
"Y  c #002243",
"T  c #002343",
"R  c #012343",
"E  c #002542",
"W  c #002543",
"Q  c #002144",
"!  c #002145",
"~  c #002244",
"^  c #002146",
"/  c #002246",
"(  c #082141",
")  c #092841",
"_  c #0C2B40",
"`  c #112C40",
"'  c #8C7D1B",
"]  c #9E7A17",
"[  c #927619",
"{  c #947619",
"}  c #98731B",
"|  c #837821",
" . c #8B7C21",
".. c #B08712",
"X. c #A89514",
"o. c #A89018",
"O. c #A49A19",
"+. c #B6A014",
"@. c #BCA012",
"#. c #C4970E",
"$. c #D0AA0D",
"%. c #E6A606",
"&. c #ECA705",
"*. c #E2A904",
"=. c #E4AD07",
"-. c #E8BC05",
";. c #E9BE06",
":. c #FFC700",
">. c #F3CE03",
",. c #FFC800",
"<. c #FACD00",
"1. c #FFCD00",
"2. c #FFCF00",
"3. c #FFD300",
"4. c #FFD500",
"5. c #FFD800",
"6. c #FFDB00",
"7. c #FFE000",
"8. c #FFE700",
"9. c #FFEA00",
"0. c #FFEB00",
"q. c #FFF400",
"w. c #FFF700",
"e. c #FFFB00",
"r. c #FFFD00",
"t. c yellow",
"y. c None",
/* pixels */
"y.y.y.y.y.y.y.y.y.y.y.y.y.y.y.y.",
"y.y.y.y.y.Q T Z H W Q Q y.y.y.y.",
"y.y.y.Q Q Q D ` 8 J / ! Q y.y.y.",
"y.y.Q Q Q ~ K  .*.k U Q ^ ^ y.y.",
"y.y.Q Q Q ~ n $.4.= o $ B V ~ y.",
"y.Q Q Q Q F _ 6.7.u v   - ; % y.",
"y.Q E G b P | w.1.%.} #.=.7 X y.",
"Q ~ F 9 O.@.9.X.q 5.,.0.] l & , ",
"Q S N o.t.<.q.e   3.&.s 6 + & , ",
"y.A ) +.d -.7.c L ..>.x j > & 1 ",
"y.~ R P ( r.' 0 p [ 8.{ k : # y.",
"y.Q S n ;.t.4 :.e.6.3.2.3 . * y.",
"y.y.S ~ f w < i r y t a 5 O y.y.",
"y.y.y.Y N M C m z g g h @ y.y.y.",
"y.y.y.y.Q Q ! ^ ! I 2 * y.y.y.y.",
"y.y.y.y.y.y.y.Q ! y.y.y.y.y.y.y."
};
