<?xml version="1.0" encoding="utf-8"?>
<!-- Generator: Adobe Illustrator 26.0.2, SVG Export Plug-In . SVG Version: 6.00 Build 0)  -->
<!DOCTYPE svg PUBLIC "-//W3C//DTD SVG 1.1//EN" "http://www.w3.org/Graphics/SVG/1.1/DTD/svg11.dtd" [
	<!ENTITY ns_extend "http://ns.adobe.com/Extensibility/1.0/">
	<!ENTITY ns_ai "http://ns.adobe.com/AdobeIllustrator/10.0/">
	<!ENTITY ns_graphs "http://ns.adobe.com/Graphs/1.0/">
	<!ENTITY ns_vars "http://ns.adobe.com/Variables/1.0/">
	<!ENTITY ns_imrep "http://ns.adobe.com/ImageReplacement/1.0/">
	<!ENTITY ns_sfw "http://ns.adobe.com/SaveForWeb/1.0/">
	<!ENTITY ns_custom "http://ns.adobe.com/GenericCustomNamespace/1.0/">
	<!ENTITY ns_adobe_xpath "http://ns.adobe.com/XPath/1.0/">
]>
<svg version="1.1"
	 id="svg2092" xmlns:x="&ns_extend;" xmlns:i="&ns_ai;" xmlns:graph="&ns_graphs;" sodipodi:docname="ic-coin-zadon.svg" xmlns:inkscape="http://www.inkscape.org/namespaces/inkscape" xmlns:sodipodi="http://sodipodi.sourceforge.net/DTD/sodipodi-0.dtd" xmlns:svg="http://www.w3.org/2000/svg"
	 xmlns="http://www.w3.org/2000/svg" xmlns:xlink="http://www.w3.org/1999/xlink" x="0px" y="0px" viewBox="0 0 24 24"
	 style="enable-background:new 0 0 24 24;" xml:space="preserve">
<style type="text/css">
	.st0{fill:#002144;}
	.st1{fill:#031F33;}
	.st2{fill:#FFCC00;}
	.st3{fill:#FFB600;}
</style>
<metadata>
	<sfw  xmlns="&ns_sfw;">
		<slices></slices>
		<sliceSourceBounds  bottomLeftOrigin="true" height="22.5" width="22.5" x="0.7" y="0.7"></sliceSourceBounds>
	</sfw>
</metadata>
<g>
	<circle class="st0" cx="12" cy="12" r="11.3"/>
	<path class="st1" d="M16.7,22.2c3.9-1.8,6.6-5.7,6.6-10.3c0-1.6-0.3-3-0.9-4.4L12.1,3.8L9,11.5l-2-0.7l-1.8,1.2l3.1,1.2l-0.1,0.3
		l-2-0.7l-1.8,1.2L7.5,15l-1.4,3.4L16.7,22.2z"/>
	<path class="st2" d="M19.4,8.9l-4.8,0.8l-2.1-5.5c-0.1-0.3-0.6-0.3-0.7,0l-2.4,6.4c-2,0.3-3.5,0.5-3.6,0.5c-0.1,0-0.1,0-0.1,0
		c0,0-0.1,0.1-0.1,0.1l-0.4,1c-0.1,0.2,0.1,0.3,0.2,0.3L8.7,12l-0.1,0.4L5,12.9c-0.1,0-0.1,0.1-0.2,0.1l-0.4,1
		c-0.1,0.2,0.1,0.3,0.2,0.3l3.3-0.5l-1.9,4c-0.1,0.3,0.1,0.5,0.4,0.5h1.9c0.2,0,0.4-0.1,0.4-0.3l0.9-2.3l2.4-5.6
		c0.1-0.2,0.3-0.2,0.4,0l2.2,5.4c0.1,0.1,0,0.3-0.2,0.3h-3.1c-0.2,0-0.4,0.1-0.4,0.3l-0.7,1.6c-0.1,0.3,0.1,0.6,0.4,0.6h7.3
		c0.3,0,0.5-0.3,0.4-0.5l-2.4-5.3l2.4-0.4c0.1,0,0.1-0.1,0.2-0.1l0.4-1c0.1-0.2-0.1-0.3-0.2-0.3l-3.4,0.5L15.1,11l3.9-0.6
		c0.1,0,0.1-0.1,0.2-0.1l0.4-1C19.7,9,19.6,8.8,19.4,8.9z"/>
	<path class="st3" d="M19.4,8.9l-4.8,0.8l-2.1-5.5c-0.1-0.2-0.2-0.2-0.4-0.2c0,2.1,0,4.2,0,6.3c0.1,0,0.2,0,0.2,0.1l2.2,5.4
		c0.1,0.1,0,0.3-0.2,0.3h-3.1c-0.2,0-0.4,0.1-0.4,0.3l-0.7,1.6c-0.1,0.3,0.1,0.6,0.4,0.6h7.3c0.3,0,0.5-0.3,0.4-0.5l-2.4-5.3
		l2.4-0.4c0.1,0,0.1-0.1,0.2-0.1l0.4-1c0.1-0.2-0.1-0.3-0.2-0.3l-3.4,0.5L15.1,11l3.9-0.6c0.1,0,0.1-0.1,0.2-0.1l0.4-1
		C19.7,9,19.6,8.8,19.4,8.9z"/>
</g>
</svg>
