<?xml version="1.0" encoding="utf-8"?>
<!-- Generator: Adobe Illustrator 24.3.0, SVG Export Plug-In . SVG Version: 6.00 Build 0)  -->
<svg version="1.1" id="ic_adon" xmlns="http://www.w3.org/2000/svg" xmlns:xlink="http://www.w3.org/1999/xlink" x="0px" y="0px"
	 viewBox="0 0 24 24" style="enable-background:new 0 0 24 24;" xml:space="preserve">
<style type="text/css">
	.st0{fill:none;}
	.st1{fill:#002144;}
	.st2{fill:#021F3A;}
	.st3{fill:#FFCC00;}
	.st4{fill:#FFB600;}
</style>
<path id="Rectangle_4543" class="st0" d="M0.4,0.4h24v24h-24V0.4z"/>
<g>
	<path class="st1" d="M12,1.1C6,1.1,1.1,6,1.1,12S6,22.9,12,22.9S22.9,18,22.9,12S18,1.1,12,1.1z M12,22.4C6.2,22.4,1.6,17.8,1.6,12
		C1.6,6.2,6.2,1.6,12,1.6c5.8,0,10.4,4.7,10.4,10.4C22.4,17.8,17.8,22.4,12,22.4z"/>
	<g>
		<g>
			<circle class="st1" cx="12" cy="12" r="10"/>
			<path class="st2" d="M16.2,21.1C19.6,19.5,22,16,22,12c0-1.4-0.3-2.7-0.8-3.9l-9.1-3.4l-2.8,6.8l-1.8-0.7L6,11.9l2.8,1l-0.1,0.3
				l-1.8-0.7l-1.6,1.1l2.8,1l-1.2,3L16.2,21.1z"/>
		</g>
		<path class="st3" d="M18.6,9.2l-4.3,0.7L12.4,5c-0.1-0.3-0.5-0.3-0.6,0l-2.2,5.7c-1.8,0.3-3.1,0.5-3.2,0.5c-0.1,0-0.1,0-0.1,0
			c0,0-0.1,0.1-0.1,0.1l-0.4,0.9c-0.1,0.1,0.1,0.3,0.2,0.3l3-0.5l-0.1,0.3l-3.2,0.5c-0.1,0-0.1,0.1-0.2,0.1l-0.4,0.9
			c-0.1,0.1,0.1,0.3,0.2,0.3l3-0.5l-1.7,3.6c-0.1,0.2,0.1,0.5,0.3,0.5h1.7c0.2,0,0.3-0.1,0.4-0.3l0.8-2l2.1-5c0.1-0.1,0.3-0.1,0.3,0
			l2,4.8c0,0.1,0,0.2-0.2,0.2h-2.8c-0.2,0-0.3,0.1-0.4,0.3l-0.6,1.4c-0.1,0.3,0.1,0.6,0.4,0.6h6.5c0.2,0,0.4-0.2,0.3-0.5l-2.1-4.7
			l2.2-0.4c0.1,0,0.1-0.1,0.2-0.1l0.4-0.9c0.1-0.1-0.1-0.3-0.2-0.3l-3,0.5l-0.1-0.3l3.5-0.6c0.1,0,0.1-0.1,0.2-0.1l0.4-0.9
			C18.9,9.3,18.8,9.2,18.6,9.2z"/>
		<path class="st4" d="M18.6,9.2l-4.3,0.7L12.4,5c-0.1-0.1-0.2-0.2-0.3-0.2c0,1.9,0,3.7,0,5.6c0.1,0,0.1,0,0.2,0.1l2,4.8
			c0,0.1,0,0.2-0.2,0.2h-2.8c-0.2,0-0.3,0.1-0.4,0.3l-0.6,1.4c-0.1,0.3,0.1,0.6,0.4,0.6h6.5c0.2,0,0.4-0.2,0.3-0.5l-2.1-4.7l2.2-0.4
			c0.1,0,0.1-0.1,0.2-0.1l0.4-0.9c0.1-0.1-0.1-0.3-0.2-0.3l-3,0.5l-0.1-0.3l3.5-0.6c0.1,0,0.1-0.1,0.2-0.1l0.4-0.9
			C18.9,9.3,18.8,9.2,18.6,9.2z"/>
	</g>
</g>
</svg>
