<?xml version="1.0" encoding="utf-8"?>
<!-- Generator: Adobe Illustrator 24.3.0, SVG Export Plug-In . SVG Version: 6.00 Build 0)  -->
<svg version="1.1" id="Layer_1" xmlns="http://www.w3.org/2000/svg" xmlns:xlink="http://www.w3.org/1999/xlink" x="0px" y="0px"
	 viewBox="0 0 24 30" style="enable-background:new 0 0 24 30;" xml:space="preserve">
<style type="text/css">
	.st0{fill:#FFFFFF;}
</style>
<desc>Created with Sketch.</desc>
<g>
	<path class="st0" d="M21.1,20.3c-0.2-0.1-0.4-0.2-0.7-0.4c0,0.2-0.1,0.3-0.1,0.4c-0.5,2.1-1.6,3.8-3.5,5c-0.5,0.4-0.9,0.7-1,1.4
		c0,0.1-0.1,0.3-0.3,0.3c-0.6,0.2-1.3,0.4-1.9,0.5c-0.1,0-0.2,0-0.3-0.1c-0.1-0.2-0.3-0.4-0.4-0.5c-0.7-0.4-1.6-0.2-2,0.5
		c-0.4,0.7-0.1,1.6,0.6,2c0.7,0.4,1.6,0,1.9-0.7c0.1-0.2,0.2-0.2,0.4-0.3c0.8-0.1,1.7-0.4,2.4-0.7c0.2-0.1,0.3-0.2,0.4-0.4
		c0-0.2,0.1-0.5,0.2-0.7c0.1-0.1,0.1-0.3,0.3-0.3c1.2-0.8,2.2-1.8,3-3c0.5-0.8,0.9-1.7,1.1-2.7C21.2,20.5,21.1,20.4,21.1,20.3z
		 M12.2,28.9c-0.2,0-0.4-0.1-0.6-0.3c-0.1-0.2-0.2-0.4-0.2-0.6c0-0.4,0.4-0.8,0.8-0.8h0c0.2,0,0.4,0.1,0.6,0.3
		c0.1,0.2,0.2,0.4,0.2,0.6C13,28.5,12.6,28.9,12.2,28.9z"/>
	<path class="st0" d="M10.2,26.6c-2.1-0.5-3.7-1.6-4.9-3.4c-0.4-0.5-0.7-0.9-1.4-1c-0.2,0-0.3-0.1-0.3-0.3c-0.2-0.6-0.4-1.3-0.5-1.9
		c0-0.1,0-0.2,0.1-0.3c0.6-0.4,0.8-1,0.6-1.6c-0.2-0.6-0.8-1-1.5-1c-0.6,0-1.2,0.5-1.3,1.2c-0.1,0.6,0.3,1.2,0.8,1.5
		c0.2,0.1,0.2,0.2,0.3,0.3c0.1,0.9,0.4,1.7,0.8,2.5c0.1,0.2,0.2,0.3,0.3,0.3C3.5,22.9,3.8,23,4,23.1c0.1,0,0.3,0.1,0.3,0.3
		c0.8,1.2,1.7,2.2,3,3c0.8,0.5,1.8,0.9,2.7,1.1c0.1,0,0.2,0,0.2-0.1c0.1-0.2,0.2-0.4,0.4-0.7C10.4,26.6,10.3,26.6,10.2,26.6z
		 M2.5,19.2c-0.4,0-0.8-0.4-0.8-0.8c0-0.2,0.1-0.4,0.2-0.6c0.1-0.2,0.4-0.2,0.6-0.2c0.4,0,0.8,0.4,0.8,0.8c0,0.2-0.1,0.4-0.2,0.6
		C2.9,19.1,2.7,19.2,2.5,19.2z"/>
	<path class="st0" d="M22.4,17.1c-0.1,0-0.2-0.1-0.2-0.3c-0.1-0.9-0.4-1.7-0.8-2.5c0-0.1-0.2-0.2-0.3-0.3c-0.2-0.1-0.5-0.2-0.7-0.2
		c-0.2,0-0.3-0.1-0.4-0.3c-0.6-1.1-1.5-1.9-2.5-2.7c-1-0.7-2-1.2-3.2-1.5c-0.1,0-0.2,0-0.2,0.1c-0.1,0.2-0.2,0.4-0.4,0.7
		c0.1,0,0.1,0,0.2,0c2.2,0.5,3.9,1.6,5.1,3.5c0.4,0.5,0.8,0.9,1.4,1c0.1,0,0.2,0.1,0.3,0.2c0.2,0.6,0.4,1.2,0.5,1.7
		c0.1,0.2,0,0.4-0.2,0.5c-0.6,0.4-0.8,1-0.5,1.6c0.2,0.6,0.8,0.9,1.5,0.9c0.6-0.1,1.1-0.6,1.2-1.2C23.3,18,23,17.4,22.4,17.1z
		 M21.8,19.2c-0.2,0-0.4-0.1-0.6-0.3c-0.1-0.2-0.2-0.4-0.2-0.6c0-0.4,0.4-0.8,0.8-0.8h0c0.4,0,0.8,0.4,0.8,0.8
		C22.6,18.8,22.3,19.2,21.8,19.2z"/>
	<path class="st0" d="M13.5,8.3c-0.2-0.6-0.7-1-1.3-1c-0.6,0-1.1,0.3-1.4,0.9c-0.1,0.1-0.1,0.2-0.3,0.2C9.8,8.6,9,8.8,8.3,9.1
		C7.9,9.2,7.7,9.4,7.7,9.8c0,0.1-0.1,0.3-0.1,0.4c0,0.2-0.1,0.3-0.3,0.4c-1.3,0.8-2.4,1.9-3.1,3.3c-0.4,0.8-0.8,1.6-0.9,2.4
		c0,0.1,0,0.2,0,0.2c0.2,0.1,0.4,0.2,0.7,0.4c0-0.1,0-0.2,0.1-0.2c0.6-2.4,1.9-4.2,4-5.5c0.1-0.1,0.2-0.2,0.3-0.4
		c0.1-0.2,0.1-0.4,0.2-0.7c0-0.2,0.1-0.3,0.3-0.3c0.6-0.2,1.2-0.3,1.8-0.5c0.2,0,0.3,0,0.4,0.2c0.4,0.6,1.2,0.8,1.8,0.5
		C13.4,9.7,13.7,9,13.5,8.3z M12.7,9.3c-0.1,0.2-0.4,0.3-0.6,0.3c-0.4,0-0.8-0.4-0.8-0.8c0-0.2,0.1-0.4,0.2-0.6
		C11.8,8,12,7.9,12.2,7.9c0.4,0,0.8,0.4,0.8,0.8C13,8.9,12.9,9.1,12.7,9.3z"/>
	<polygon class="st0" points="8.8,13.6 12.9,23.3 11.1,23.3 8.8,17.8 8.8,23.3 7.2,23.3 7.2,13.6 	"/>
	<polygon class="st0" points="16.8,13.6 16.8,23.3 15.2,23.3 15.2,17.8 13.3,22.2 12.4,20.1 15.2,13.6 	"/>
</g>
</svg>
