<?xml version="1.0" encoding="utf-8"?>
<!-- Generator: Adobe Illustrator 24.3.0, SVG Export Plug-In . SVG Version: 6.00 Build 0)  -->
<svg version="1.1" id="Layer_1" xmlns="http://www.w3.org/2000/svg" xmlns:xlink="http://www.w3.org/1999/xlink" x="0px" y="0px"
	 viewBox="0 0 24 30" style="enable-background:new 0 0 24 30;" xml:space="preserve">
<style type="text/css">
	.st0{fill:#ffdb45;}
</style>
<desc>Created with Sketch.</desc>
<g>
	<path class="st0" d="M20.7,20c-0.2-0.1-0.4-0.2-0.7-0.4c0,0.2-0.1,0.3-0.1,0.4c-0.5,2.1-1.6,3.8-3.5,5c-0.5,0.4-0.9,0.7-1,1.4
		c0,0.1-0.1,0.3-0.3,0.3c-0.6,0.2-1.3,0.4-1.9,0.5c-0.1,0-0.2,0-0.3-0.1c-0.1-0.2-0.3-0.4-0.4-0.5c-0.7-0.4-1.6-0.2-2,0.5
		c-0.4,0.7-0.1,1.6,0.6,2c0.7,0.4,1.6,0,1.9-0.7c0.1-0.2,0.2-0.2,0.4-0.3c0.8-0.1,1.7-0.4,2.4-0.7c0.2-0.1,0.3-0.2,0.4-0.4
		c0-0.2,0.1-0.5,0.2-0.7c0.1-0.1,0.1-0.3,0.3-0.3c1.2-0.8,2.2-1.8,3-3c0.5-0.8,0.9-1.7,1.1-2.7C20.8,20.2,20.8,20.1,20.7,20z
		 M11.8,28.6c-0.2,0-0.4-0.1-0.6-0.3c-0.1-0.2-0.2-0.4-0.2-0.6c0-0.4,0.4-0.8,0.8-0.8h0c0.2,0,0.4,0.1,0.6,0.3
		c0.1,0.2,0.2,0.4,0.2,0.6C12.6,28.2,12.3,28.6,11.8,28.6z"/>
	<path class="st0" d="M9.8,26.3c-2.1-0.5-3.7-1.6-4.9-3.4c-0.4-0.5-0.7-0.9-1.4-1c-0.2,0-0.3-0.1-0.3-0.3c-0.2-0.6-0.4-1.3-0.5-1.9
		c0-0.1,0-0.2,0.1-0.3c0.6-0.4,0.8-1,0.6-1.6c-0.2-0.6-0.8-1-1.5-1c-0.6,0-1.2,0.5-1.3,1.2c-0.1,0.6,0.3,1.2,0.8,1.5
		c0.2,0.1,0.2,0.2,0.3,0.3c0.1,0.9,0.4,1.7,0.8,2.5c0.1,0.2,0.2,0.3,0.3,0.3c0.2,0.1,0.5,0.1,0.7,0.2c0.1,0,0.3,0.1,0.3,0.3
		c0.8,1.2,1.7,2.2,3,3c0.8,0.5,1.8,0.9,2.7,1.1c0.1,0,0.2,0,0.2-0.1c0.1-0.2,0.2-0.4,0.4-0.7C10.1,26.3,10,26.3,9.8,26.3z M2.1,18.9
		c-0.4,0-0.8-0.4-0.8-0.8c0-0.2,0.1-0.4,0.2-0.6c0.1-0.2,0.4-0.2,0.6-0.2c0.4,0,0.8,0.4,0.8,0.8c0,0.2-0.1,0.4-0.2,0.6
		C2.6,18.8,2.3,18.9,2.1,18.9z"/>
	<path class="st0" d="M22,16.8c-0.1,0-0.2-0.1-0.2-0.3c-0.1-0.9-0.4-1.7-0.8-2.5c0-0.1-0.2-0.2-0.3-0.3c-0.2-0.1-0.5-0.2-0.7-0.2
		c-0.2,0-0.3-0.1-0.4-0.3c-0.6-1.1-1.5-1.9-2.5-2.7c-1-0.7-2-1.2-3.2-1.5c-0.1,0-0.2,0-0.2,0.1c-0.1,0.2-0.2,0.4-0.4,0.7
		c0.1,0,0.1,0,0.2,0c2.2,0.5,3.9,1.6,5.1,3.5c0.4,0.5,0.8,0.9,1.4,1c0.1,0,0.2,0.1,0.3,0.2c0.2,0.6,0.4,1.2,0.5,1.7
		c0.1,0.2,0,0.4-0.2,0.5c-0.6,0.4-0.8,1-0.5,1.6c0.2,0.6,0.8,0.9,1.5,0.9c0.6-0.1,1.1-0.6,1.2-1.2C23,17.7,22.6,17,22,16.8z
		 M21.5,18.9c-0.2,0-0.4-0.1-0.6-0.3c-0.1-0.2-0.2-0.4-0.2-0.6c0-0.4,0.4-0.8,0.8-0.8h0c0.4,0,0.8,0.4,0.8,0.8
		C22.3,18.5,21.9,18.9,21.5,18.9z"/>
	<path class="st0" d="M13.2,8c-0.2-0.6-0.7-1-1.3-1c-0.6,0-1.1,0.3-1.4,0.9c-0.1,0.1-0.1,0.2-0.3,0.2C9.4,8.2,8.7,8.5,7.9,8.8
		C7.6,8.9,7.4,9.1,7.3,9.5c0,0.1-0.1,0.3-0.1,0.4c0,0.2-0.1,0.3-0.3,0.4c-1.3,0.8-2.4,1.9-3.1,3.3c-0.4,0.8-0.8,1.6-0.9,2.4
		c0,0.1,0,0.2,0,0.2c0.2,0.1,0.4,0.2,0.7,0.4c0-0.1,0-0.2,0.1-0.2c0.6-2.4,1.9-4.2,4-5.5c0.1-0.1,0.2-0.2,0.3-0.4
		C8,10.2,8.1,10,8.1,9.8c0-0.2,0.1-0.3,0.3-0.3C9,9.3,9.6,9.2,10.2,9c0.2,0,0.3,0,0.4,0.2c0.4,0.6,1.2,0.8,1.8,0.5
		C13,9.4,13.3,8.7,13.2,8z M12.4,8.9c-0.1,0.2-0.4,0.3-0.6,0.3c-0.4,0-0.8-0.4-0.8-0.8c0-0.2,0.1-0.4,0.2-0.6
		c0.2-0.2,0.4-0.2,0.6-0.2c0.4,0,0.8,0.4,0.8,0.8C12.6,8.6,12.5,8.8,12.4,8.9z"/>
	<polygon class="st0" points="8.5,13.3 12.5,23 10.8,23 8.5,17.5 8.5,23 6.9,23 6.9,13.3 	"/>
	<polygon class="st0" points="16.4,13.3 16.4,23 14.8,23 14.8,17.5 13,21.9 12.1,19.8 14.8,13.3 	"/>
</g>
</svg>
