<?xml version="1.0" encoding="utf-8"?>
<!-- Generator: Adobe Illustrator 24.3.0, SVG Export Plug-In . SVG Version: 6.00 Build 0)  -->
<svg version="1.1" id="Layer_1" xmlns="http://www.w3.org/2000/svg" xmlns:xlink="http://www.w3.org/1999/xlink" x="0px" y="0px"
	 viewBox="0 0 100 100" style="enable-background:new 0 0 100 100;" xml:space="preserve">
<style type="text/css">
	.st0{fill:#D6D6D6;}
	.st1{fill:#666666;}
	.st2{fill:none;}
</style>
<g id="ic_staking_off" transform="translate(-150)">
	<g id="Group_9010">
		<g id="Group_9005">
			<circle id="Ellipse_612" class="st0" cx="200" cy="70" r="14"/>
			<path id="Rectangle_4658" class="st0" d="M191,28h18v18h-18V28z"/>
		</g>
		<g id="Group_9009">
			<g id="Group_9006">
				<path id="Rectangle_4659" class="st1" d="M231,58h2v4h-2V58z"/>
				<path id="Path_18967" class="st1" d="M231,91h-62v-7h-2v9h66V66h-2V91z"/>
				<path id="Rectangle_4660" class="st1" d="M167,76h2v4h-2V76z"/>
				<path id="Path_18968" class="st1" d="M230,27v2h7v16h-27V29h16v-2h-9.7c5-3.5,6.2-10.3,2.7-15.3c-3.5-5-10.3-6.2-15.3-2.7
					c-1.6,1.1-2.9,2.7-3.7,4.5c-2.5-5.5-9-8-14.6-5.5s-8,9-5.5,14.6c0.8,1.8,2.1,3.3,3.7,4.5H161v20h6v25h2V47h62v7h2v-7h6V27H230z
					 M210,9c5,0,9,4,9,9s-4,9-9,9l0,0h-9v-9C201,13,205,9,210,9z M181,18c0-5,4-9,9-9s9,4,9,9v9h-9C185,27,181,23,181,18z M167,45
					h-4V29h27v16H167z M192,45V29h16v16H192z"/>
			</g>
			<g id="Group_9008">
				<path id="Path_18969" class="st1" d="M205,55.9V58c6.6,2.8,9.8,10.4,7,17s-10.4,9.8-17,7s-9.8-10.4-7-17c1.3-3.2,3.8-5.7,7-7
					v-2.1c-7.8,2.8-11.9,11.3-9.1,19.1s11.3,11.9,19.1,9.1s11.9-11.3,9.1-19.1C212.6,60.7,209.3,57.4,205,55.9z"/>
				<g id="Group_9007">
					<path id="Rectangle_4661" class="st1" d="M199,52h2v20h-2V52z"/>
				</g>
			</g>
		</g>
	</g>
	<path id="Rectangle_4662" class="st2" d="M150,0h100v100H150V0z"/>
</g>
</svg>
