<?xml version="1.0" encoding="utf-8"?>
<!-- Generator: Adobe Illustrator 24.3.0, SVG Export Plug-In . SVG Version: 6.00 Build 0)  -->
<svg version="1.1" id="ic_empty_Dark_masternode" xmlns="http://www.w3.org/2000/svg" xmlns:xlink="http://www.w3.org/1999/xlink"
	 x="0px" y="0px" viewBox="0 0 100 100" style="enable-background:new 0 0 100 100;" xml:space="preserve">
<style type="text/css">
	.st0{fill:#A09EA5;}
	.st1{fill:#214A5E;}
</style>
<g>
	<path class="st0" d="M85.2,56.8c1,0.6,2,1,2.8,1.6c0.2,0.2,0.3,0.7,0.3,1.1c-1,4.1-2.5,7.9-4.8,11.5c-3.3,5.2-7.5,9.4-12.7,12.7
		c-0.5,0.3-0.8,0.9-1.1,1.4c-0.4,0.9-0.7,1.9-0.9,2.9c-0.2,0.8-0.7,1.3-1.5,1.6c-3.3,1.4-6.8,2.5-10.4,3.1c-0.8,0.1-1.2,0.4-1.5,1.1
		c-1.3,3.1-5,4.5-8,3c-3.1-1.5-4.3-5.3-2.6-8.3c1.7-3,5.6-4,8.4-2.1c0.8,0.5,1.4,1.3,1.9,2c0.4,0.5,0.7,0.7,1.3,0.5
		c2.7-0.8,5.5-1.5,8.2-2.3c0.5-0.1,1-0.7,1.1-1.2c0.5-2.7,2-4.3,4.3-5.8c7.7-5,12.5-12.1,14.7-21.1C84.9,58,85,57.4,85.2,56.8z"/>
	<path class="st1" d="M50,94.7c-0.9,0-1.8-0.4-2.4-1.1c-0.6-0.7-1-1.5-0.9-2.4c0-1.9,1.5-3.3,3.4-3.3l0.1,0c0.9,0,1.8,0.4,2.4,1.1
		c0.6,0.7,0.9,1.5,0.9,2.4C53.4,93.3,51.9,94.7,50,94.7L50,94.7z"/>
	<path class="st0" d="M43.3,85.3c-0.6,1-1,1.9-1.5,2.8c-0.2,0.2-0.7,0.4-1,0.3c-4.1-1-8-2.6-11.6-4.8c-5.2-3.3-9.4-7.5-12.6-12.6
		c-0.3-0.5-0.9-0.9-1.4-1.1c-0.9-0.4-2-0.7-3-1c-0.7-0.2-1.1-0.6-1.4-1.3C9.2,64.2,8.1,60.7,7.6,57c-0.1-0.7-0.4-1.1-1.1-1.4
		c-2.5-1.1-4-3.8-3.6-6.4c0.5-2.8,2.7-4.8,5.4-5c2.8-0.2,5.3,1.5,6.2,4.2c0.8,2.6-0.3,5.4-2.7,6.9c-0.6,0.3-0.8,0.7-0.6,1.3
		c0.8,2.7,1.5,5.4,2.3,8.1c0.2,0.6,0.6,1.1,1.3,1.2c2.7,0.4,4.3,2.1,5.8,4.4c5,7.6,12.1,12.4,20.9,14.6C42.1,85,42.7,85.1,43.3,85.3
		z"/>
	<path class="st1" d="M8.8,53.6c-1.9,0-3.4-1.5-3.4-3.3c0-0.9,0.3-1.7,1-2.4c0.6-0.7,1.5-1,2.4-1h0c1.9,0,3.4,1.5,3.4,3.3
		c0,0.9-0.3,1.8-1,2.4C10.5,53.2,9.7,53.6,8.8,53.6L8.8,53.6z"/>
	<path class="st0" d="M56.7,14.9c0.6-1,1-2,1.6-2.8c0.1-0.2,0.7-0.3,1-0.3c5,1.2,9.5,3.2,13.7,6.2c4.3,3.1,7.8,6.8,10.5,11.3
		c0.4,0.6,0.8,1,1.5,1.2c1,0.3,2.1,0.6,3,1c0.5,0.2,1,0.6,1.2,1.1c1.6,3.4,2.7,7,3.3,10.7c0.1,0.7,0.4,1.1,1,1.3
		c2.5,1,4,3.7,3.6,6.1c-0.4,2.8-2.5,4.9-5.1,5.2c-2.7,0.3-5.3-1.2-6.3-3.7c-1-2.6-0.2-5.5,2.2-7c1-0.7,1.1-1.3,0.8-2.3
		c-0.7-2.5-1.4-5-2.2-7.4c-0.1-0.4-0.7-0.9-1.1-1c-2.7-0.5-4.4-2.1-5.9-4.4c-5.2-7.9-12.6-12.8-21.9-14.9C57.3,15.1,57,15,56.7,14.9
		z"/>
	<path class="st1" d="M91.2,53.4c-0.9,0-1.8-0.4-2.4-1.1c-0.6-0.7-1-1.5-0.9-2.4c0.1-1.9,1.5-3.3,3.4-3.3l0.1,0
		c1.8,0.1,3.3,1.7,3.3,3.4C94.6,51.9,93.1,53.4,91.2,53.4L91.2,53.4z"/>
	<path class="st0" d="M14.8,43.4c-1-0.6-2-1-2.9-1.6c-0.2-0.1-0.3-0.7-0.2-1c0.8-3.6,2.1-7,4-10.2C19,24.9,23.4,20.3,29,16.7
		c0.7-0.4,1.1-1,1.3-1.7c0.1-0.6,0.4-1.1,0.5-1.7c0.2-1.6,1.1-2.4,2.6-3c3.2-1.2,6.4-2.2,9.8-2.7c0.6-0.1,0.9-0.5,1.2-1
		c1-2.4,3.4-3.9,5.8-3.7c2.6,0.2,4.7,1.8,5.4,4.3c0.8,2.7-0.6,5.8-3.2,7c-2.6,1.2-5.9,0.3-7.5-2.2c-0.5-0.8-0.9-1-1.7-0.8
		c-2.6,0.8-5.2,1.5-7.8,2.2c-0.7,0.2-1,0.6-1.2,1.3c-0.3,0.9-0.6,1.9-0.9,2.8c-0.2,0.7-0.6,1.1-1.2,1.5c-9,5.3-14.7,13.1-17.1,23.3
		C15,42.8,14.9,43.1,14.8,43.4z"/>
	<path class="st1" d="M50,12.2c-1.9,0-3.4-1.5-3.4-3.4c0-0.9,0.4-1.7,1-2.4c0.7-0.7,1.5-1,2.4-1c1.8,0,3.3,1.5,3.4,3.3
		c0,0.9-0.3,1.8-1,2.4C51.7,11.9,50.9,12.2,50,12.2L50,12.2z"/>
	<polygon class="st1" points="38.6,33.7 53.3,68.8 46.9,68.8 38.6,49 38.6,68.8 32.8,68.8 32.8,33.7 	"/>
	<polygon class="st1" points="67.4,33.7 67.4,68.8 61.6,68.8 61.6,49 54.8,65 51.7,57.4 61.6,33.7 	"/>
	<g>
		<rect x="67.4" y="54.5" class="st0" width="1.1" height="4.5"/>
		<polygon class="st0" points="60.8,32.6 50.5,57.4 54.8,68 60.4,54.6 60.4,70 68.5,70 68.5,62.9 67.4,62.9 67.4,68.8 61.6,68.8 
			61.6,49 54.8,65 51.7,57.4 61.6,33.7 67.4,33.7 67.4,50.6 68.5,50.6 68.5,32.6 		"/>
	</g>
	<polygon class="st0" points="39.4,32.6 31.6,32.6 31.6,70 39.8,70 39.8,54.6 42.6,61.3 43.6,60.9 38.6,49 38.6,68.8 32.8,68.8 
		32.8,33.7 38.6,33.7 53.3,68.8 46.9,68.8 45.2,64.6 44.1,65 46.2,70 55,70 	"/>
</g>
</svg>
