<?xml version="1.0" encoding="utf-8"?>
<!-- Generator: Adobe Illustrator 24.3.0, SVG Export Plug-In . SVG Version: 6.00 Build 0)  -->
<svg version="1.1" id="ic_empty_error" xmlns="http://www.w3.org/2000/svg" xmlns:xlink="http://www.w3.org/1999/xlink" x="0px"
	 y="0px" viewBox="0 0 100 100" style="enable-background:new 0 0 100 100;" xml:space="preserve">
<style type="text/css">
	.st0{fill:#D6D6D6;}
	.st1{fill:#666666;}
</style>
<g>
	<path id="Path_19009" class="st0" d="M51.3,29.4l-22,40h44L51.3,29.4z M54.3,42.4l-1,12h-4l-1-12H54.3z M51.3,64.4
		c-1.7,0-3-1.3-3-3s1.3-3,3-3s3,1.3,3,3S53,64.4,51.3,64.4z"/>
	<path id="Path_19012" class="st1" d="M65.3,70.4H75L51.3,27.3L27.7,70.4h33.7v-2H31l20.3-36.9l20.3,36.9h-6.3V70.4z"/>
	<path id="Path_19013" class="st1" d="M47.3,41.4l1.2,14h5.8l1.2-14H47.3z M52.4,53.4h-2.2l-0.8-10h3.8L52.4,53.4z"/>
	<path id="Path_19014" class="st1" d="M51.3,57.4c-2.2,0-4,1.8-4,4s1.8,4,4,4s4-1.8,4-4S53.6,57.4,51.3,57.4z M51.3,63.4
		c-1.1,0-2-0.9-2-2s0.9-2,2-2s2,0.9,2,2S52.5,63.4,51.3,63.4z"/>
	<path class="st0" d="M51.3,11.5c-21.9,0-39.7,17.8-39.7,39.7s17.8,39.7,39.7,39.7S91,73,91,51.1S73.2,11.5,51.3,11.5z M51.3,89.4
		c-21.1,0-38.3-17.2-38.3-38.3c0-21.1,17.2-38.3,38.3-38.3c21.1,0,38.3,17.2,38.3,38.3C89.6,72.2,72.4,89.4,51.3,89.4z"/>
	<path class="st0" d="M51.3,9C28.1,9,9.2,27.9,9.2,51.1c0,23.2,18.9,42.1,42.1,42.1c23.2,0,42.1-18.9,42.1-42.1
		C93.5,27.9,74.6,9,51.3,9z M51.3,90.4c-21.7,0-39.3-17.6-39.3-39.3c0-21.7,17.6-39.3,39.3-39.3c21.7,0,39.3,17.6,39.3,39.3
		C90.6,72.8,73,90.4,51.3,90.4z"/>
	<path class="st0" d="M51.3,7.6c-24,0-43.5,19.5-43.5,43.5c0,24,19.5,43.5,43.5,43.5c24,0,43.5-19.5,43.5-43.5
		C94.9,27.1,75.4,7.6,51.3,7.6z M51.3,92.2c-22.7,0-41.1-18.4-41.1-41.1C10.2,28.5,28.7,10,51.3,10C74,10,92.5,28.5,92.5,51.1
		C92.5,73.8,74,92.2,51.3,92.2z"/>
	<g>
		<path class="st1" d="M13.1,73.7l1.9-1.2c-0.9-1.5-1.6-3-2.3-4.5l-2.2,0.7C11.3,70.4,12.2,72.1,13.1,73.7z"/>
		<path class="st1" d="M51.3,6.8C26.8,6.8,7,26.6,7,51.1c0,4.2,0.6,8.3,1.7,12.1l2.2-0.7c-1-3.7-1.6-7.5-1.6-11.5
			C9.2,27.9,28.1,9,51.3,9c23.2,0,42.1,18.9,42.1,42.1c0,23.2-18.9,42.1-42.1,42.1c-13.4,0-25.4-6.3-33.1-16.1l-2,1.2
			c8.1,10.4,20.8,17.2,35.1,17.2c24.5,0,44.4-19.9,44.4-44.4S75.9,6.8,51.3,6.8z"/>
	</g>
	<g>
		<path class="st1" d="M86.5,32.8l-2,1.1c0.8,1.5,1.5,3.1,2,4.7l2.3-0.6C88.2,36.2,87.4,34.5,86.5,32.8z"/>
		<path class="st1" d="M90.3,43.5L88,44.1c0.4,2.3,0.7,4.7,0.7,7.1c0,20.6-16.8,37.4-37.4,37.4C30.7,88.5,14,71.7,14,51.1
			s16.8-37.4,37.4-37.4c12.4,0,23.4,6.1,30.2,15.4l2-1.1c-7.2-10-19-16.5-32.2-16.5c-21.9,0-39.7,17.8-39.7,39.7
			s17.8,39.7,39.7,39.7S91,73,91,51.1C91,48.5,90.8,46,90.3,43.5z"/>
	</g>
</g>
</svg>
