<?xml version="1.0" encoding="utf-8"?>
<!-- Generator: Adobe Illustrator 24.3.0, SVG Export Plug-In . SVG Version: 6.00 Build 0)  -->
<svg version="1.1" id="ic_empty_Dark_transactions" xmlns="http://www.w3.org/2000/svg" xmlns:xlink="http://www.w3.org/1999/xlink"
	 x="0px" y="0px" viewBox="0 0 100 100" style="enable-background:new 0 0 100 100;" xml:space="preserve">
<style type="text/css">
	.st0{fill:#214A5E;}
	.st1{fill:#A09EA5;}
	.st2{fill:none;}
</style>
<g id="Group_9036">
	<path id="Path_18988" class="st0" d="M50,26c-13.3,0-24,10.7-24,24s10.7,24,24,24s24-10.7,24-24S63.3,26,50,26z M50,68
		c-9.9,0-18-8.1-18-18s8.1-18,18-18s18,8.1,18,18S59.9,68,50,68z"/>
	<g id="Group_9035">
		<g id="Group_9034">
			<path id="Path_18990" class="st1" d="M50,31c-10.5,0-19,8.5-19,19s8.5,19,19,19s19-8.5,19-19S60.5,31,50,31z M50,67
				c-9.4,0-17-7.6-17-17s7.6-17,17-17s17,7.6,17,17S59.4,67,50,67z"/>
			<path id="Rectangle_4693" class="st1" d="M83,56h2v4h-2V56z"/>
			<path id="Rectangle_4694" class="st1" d="M83,44h2v8h-2V44z"/>
			<path id="Rectangle_4695" class="st1" d="M15,48h2v8h-2V48z"/>
			<path id="Rectangle_4696" class="st1" d="M15,40h2v4h-2V40z"/>
			<path id="Path_18991" class="st1" d="M95.2,71H85v-7h-2v9h7.8L76,90.5L61.2,73H68v-2h-4.5c11.6-7.5,15-22.9,7.5-34.5
				c-6.4-9.9-18.9-14-29.9-9.8L24,6.5L4.8,29H15v7h2v-9H9.2L24,9.5L38.8,27H32v2h4.5c-11.6,7.5-15,22.9-7.5,34.5
				c6.4,9.9,18.9,14,29.9,9.8L76,93.5L95.2,71z M27,50c0-12.7,10.3-23,23-23s23,10.3,23,23S62.7,73,50,73S27,62.7,27,50z"/>
		</g>
		<path class="st1" d="M61.5,46.3l-7.1,1.1l-3.1-8.2c-0.2-0.5-0.9-0.5-1.1,0l-3.6,9.4c-3,0.5-5.2,0.8-5.3,0.8s-0.1,0.1-0.2,0.1
			c-0.1,0-0.1,0.1-0.1,0.1l-0.6,1.5c-0.1,0.2,0.1,0.5,0.4,0.5l4.9-0.7l-0.2,0.5l-5.3,0.8c-0.1,0-0.2,0.1-0.3,0.2L39.2,54
			c-0.1,0.2,0.1,0.5,0.4,0.5l4.9-0.7l-2.8,6c-0.2,0.4,0.1,0.8,0.5,0.8H45c0.3,0,0.5-0.2,0.6-0.4l1.4-3.3l3.5-8.3
			c0.1-0.2,0.4-0.2,0.5,0l3.3,7.9c0.1,0.2-0.1,0.4-0.3,0.4h-4.6c-0.3,0-0.5,0.2-0.6,0.4l-1,2.4c-0.2,0.4,0.1,0.9,0.6,0.9h10.8
			c0.4,0,0.7-0.4,0.5-0.8L56.1,52l3.6-0.6c0.1,0,0.2-0.1,0.3-0.2l0.6-1.5c0.1-0.2-0.1-0.5-0.4-0.5l-5,0.8L55,49.5l5.8-0.9
			c0.1,0,0.2-0.1,0.3-0.2l0.6-1.5C62,46.5,61.8,46.3,61.5,46.3z"/>
	</g>
</g>
<path id="Rectangle_4697" class="st2" d="M0,0h100v100H0V0z"/>
</svg>
