<?xml version="1.0" encoding="utf-8"?>
<!-- Generator: Adobe Illustrator 24.3.0, SVG Export Plug-In . SVG Version: 6.00 Build 0)  -->
<svg version="1.1" id="ic_empty_masternode" xmlns="http://www.w3.org/2000/svg" xmlns:xlink="http://www.w3.org/1999/xlink"
	 x="0px" y="0px" viewBox="0 0 100 100" style="enable-background:new 0 0 100 100;" xml:space="preserve">
<style type="text/css">
	.st0{fill:none;}
	.st1{fill:#666666;}
	.st2{fill:#D6D6D6;}
</style>
<g>
	<path id="Rectangle_4674" class="st0" d="M-0.6,0h100v100h-100V0z"/>
	<path class="st1" d="M86,57.5c1,0.6,2,1,2.8,1.6c0.2,0.2,0.3,0.7,0.3,1.1c-1,4.1-2.5,7.9-4.8,11.5c-3.3,5.2-7.5,9.4-12.7,12.7
		c-0.5,0.3-0.8,0.9-1.1,1.4c-0.4,0.9-0.7,1.9-0.9,2.9c-0.2,0.8-0.7,1.3-1.5,1.6c-3.3,1.4-6.8,2.5-10.4,3.1c-0.8,0.1-1.2,0.4-1.5,1.1
		c-1.3,3.1-5,4.5-8,3c-3.1-1.5-4.3-5.3-2.6-8.3c1.7-3,5.6-4,8.4-2.1c0.8,0.5,1.4,1.3,1.9,2c0.4,0.5,0.7,0.7,1.3,0.5
		c2.7-0.8,5.5-1.5,8.2-2.3c0.5-0.1,1-0.7,1.1-1.2c0.5-2.7,2-4.3,4.3-5.8c7.7-5,12.5-12.1,14.7-21.1C85.7,58.8,85.9,58.2,86,57.5z"/>
	<path class="st2" d="M50.9,95.5c-0.9,0-1.8-0.4-2.4-1.1c-0.6-0.7-1-1.5-0.9-2.4c0-1.9,1.5-3.3,3.4-3.3l0.1,0c0.9,0,1.8,0.4,2.4,1.1
		c0.6,0.7,0.9,1.5,0.9,2.4C54.2,94,52.7,95.5,50.9,95.5L50.9,95.5z"/>
	<path class="st1" d="M44.2,86.1c-0.6,1-1,1.9-1.5,2.8c-0.2,0.2-0.7,0.4-1,0.3c-4.1-1-8-2.6-11.6-4.8c-5.2-3.3-9.4-7.5-12.6-12.6
		c-0.3-0.5-0.9-0.9-1.4-1.1c-0.9-0.4-2-0.7-3-1c-0.7-0.2-1.1-0.6-1.4-1.3C10.1,65,9,61.5,8.4,57.8c-0.1-0.7-0.4-1.1-1.1-1.4
		c-2.5-1.1-4-3.8-3.6-6.4c0.5-2.8,2.7-4.8,5.4-5c2.8-0.2,5.3,1.5,6.2,4.2c0.8,2.6-0.3,5.4-2.7,6.9c-0.6,0.3-0.8,0.7-0.6,1.3
		c0.8,2.7,1.5,5.4,2.3,8.1c0.2,0.6,0.6,1.1,1.3,1.2c2.7,0.4,4.3,2.1,5.8,4.4c5,7.6,12.1,12.4,20.9,14.6
		C42.9,85.7,43.5,85.9,44.2,86.1z"/>
	<path class="st2" d="M9.6,54.3c-1.9,0-3.4-1.5-3.4-3.3c0-0.9,0.3-1.7,1-2.4c0.6-0.7,1.5-1,2.4-1h0c1.9,0,3.4,1.5,3.4,3.3
		c0,0.9-0.3,1.8-1,2.4C11.4,54,10.5,54.3,9.6,54.3L9.6,54.3z"/>
	<path class="st1" d="M57.5,15.7c0.6-1,1-2,1.6-2.8c0.1-0.2,0.7-0.3,1-0.3c5,1.2,9.5,3.2,13.7,6.2c4.3,3.1,7.8,6.8,10.5,11.3
		c0.4,0.6,0.8,1,1.5,1.2c1,0.3,2.1,0.6,3,1c0.5,0.2,1,0.6,1.2,1.1c1.6,3.4,2.7,7,3.3,10.7c0.1,0.7,0.4,1.1,1,1.3
		c2.5,1,4,3.7,3.6,6.1c-0.4,2.8-2.5,4.9-5.1,5.2c-2.7,0.3-5.3-1.2-6.3-3.7c-1-2.6-0.2-5.5,2.2-7c1-0.7,1.1-1.3,0.8-2.3
		c-0.7-2.5-1.4-5-2.2-7.4c-0.1-0.4-0.7-0.9-1.1-1c-2.7-0.5-4.4-2.1-5.9-4.4C75.1,22.9,67.7,18,58.4,15.9
		C58.1,15.9,57.8,15.8,57.5,15.7z"/>
	<path class="st2" d="M92,54.2c-0.9,0-1.8-0.4-2.4-1.1c-0.6-0.7-1-1.5-0.9-2.4c0.1-1.9,1.5-3.3,3.4-3.3l0.1,0
		c1.8,0.1,3.3,1.7,3.3,3.4C95.4,52.7,93.9,54.2,92,54.2L92,54.2z"/>
	<path class="st1" d="M15.6,44.2c-1-0.6-2-1-2.9-1.6c-0.2-0.1-0.3-0.7-0.2-1c0.8-3.6,2.1-7,4-10.2c3.3-5.8,7.7-10.4,13.4-13.9
		c0.7-0.4,1.1-1,1.3-1.7c0.1-0.6,0.4-1.1,0.5-1.7c0.2-1.6,1.1-2.4,2.6-3c3.2-1.2,6.4-2.2,9.8-2.7c0.6-0.1,0.9-0.5,1.2-1
		c1-2.4,3.4-3.9,5.8-3.7c2.6,0.2,4.7,1.8,5.4,4.3c0.8,2.7-0.6,5.8-3.2,7c-2.6,1.2-5.9,0.3-7.5-2.2c-0.5-0.8-0.9-1-1.7-0.8
		c-2.6,0.8-5.2,1.5-7.8,2.2c-0.7,0.2-1,0.6-1.2,1.3c-0.3,0.9-0.6,1.9-0.9,2.8c-0.2,0.7-0.6,1.1-1.2,1.5C24,25.2,18.3,33,15.9,43.2
		C15.8,43.5,15.7,43.9,15.6,44.2z"/>
	<path class="st2" d="M50.8,13c-1.9,0-3.4-1.5-3.4-3.4c0-0.9,0.4-1.7,1-2.4c0.7-0.7,1.5-1,2.4-1c1.8,0,3.3,1.5,3.4,3.3
		c0,0.9-0.3,1.8-1,2.4C52.6,12.7,51.7,13,50.8,13L50.8,13z"/>
	<polygon class="st2" points="39.5,34.5 54.1,69.6 47.8,69.6 39.5,49.7 39.5,69.6 33.6,69.6 33.6,34.5 	"/>
	<polygon class="st2" points="68.2,34.5 68.2,69.6 62.4,69.6 62.4,49.7 55.7,65.8 52.5,58.2 62.4,34.5 	"/>
	<g>
		<rect x="68.2" y="55.2" class="st1" width="1.1" height="4.5"/>
		<polygon class="st1" points="61.6,33.4 51.3,58.2 55.7,68.8 61.3,55.4 61.3,70.7 69.4,70.7 69.4,63.7 68.2,63.7 68.2,69.6 
			62.4,69.6 62.4,49.7 55.7,65.8 52.5,58.2 62.4,34.5 68.2,34.5 68.2,51.3 69.4,51.3 69.4,33.4 		"/>
	</g>
	<polygon class="st1" points="40.2,33.4 32.5,33.4 32.5,70.7 40.6,70.7 40.6,55.4 43.4,62.1 44.5,61.7 39.5,49.7 39.5,69.6 
		33.6,69.6 33.6,34.5 39.5,34.5 54.1,69.6 47.8,69.6 46,65.4 45,65.8 47,70.7 55.8,70.7 	"/>
</g>
</svg>
