<?xml version="1.0" encoding="utf-8"?>
<!-- Generator: Adobe Illustrator 24.3.0, SVG Export Plug-In . SVG Version: 6.00 Build 0)  -->
<svg version="1.1" id="ic_empty_zadon" xmlns="http://www.w3.org/2000/svg" xmlns:xlink="http://www.w3.org/1999/xlink" x="0px"
	 y="0px" viewBox="0 0 100 100" style="enable-background:new 0 0 100 100;" xml:space="preserve">
<style type="text/css">
	.st0{fill:#D6D6D6;}
	.st1{fill:#666666;}
	.st2{fill:none;}
</style>
<path id="Path_19031" class="st0" d="M50,26c-13.3,0-24,10.7-24,24s10.7,24,24,24s24-10.7,24-24S63.3,26,50,26z M50,68
	c-9.9,0-18-8.1-18-18s8.1-18,18-18s18,8.1,18,18S59.9,68,50,68z"/>
<g id="Group_9083">
	<path id="Path_19032" class="st1" d="M50,31c-10.5,0-19,8.5-19,19s8.5,19,19,19s19-8.5,19-19C69,39.5,60.5,31,50,31z M50,67
		c-9.4,0-17-7.6-17-17s7.6-17,17-17s17,7.6,17,17C67,59.4,59.4,67,50,67z"/>
	<path id="Rectangle_4749" class="st1" d="M83,56h2v4h-2V56z"/>
	<path id="Rectangle_4750" class="st1" d="M83,44h2v8h-2V44z"/>
	<path id="Rectangle_4751" class="st1" d="M15,48h2v8h-2V48z"/>
	<path id="Rectangle_4752" class="st1" d="M15,40h2v4h-2V40z"/>
	<path id="Path_19033" class="st1" d="M95.2,71H85v-7h-2v9h7.8L76,90.5L61.2,73H68v-2h-4.5c11.6-7.5,15-22.9,7.5-34.5
		c-6.4-9.9-18.9-14-29.9-9.8L24,6.5L4.8,29H15v7h2v-9H9.2L24,9.5L38.8,27H32v2h4.5c-11.6,7.5-15,22.9-7.5,34.5
		c6.4,9.9,18.9,14,29.9,9.8L76,93.5L95.2,71z M27,50c0-12.7,10.3-23,23-23s23,10.3,23,23S62.7,73,50,73C37.3,73,27,62.7,27,50z"/>
</g>
<path id="Rectangle_4753" class="st2" d="M0,0h100v100H0V0z"/>
<path class="st1" d="M59.9,47l-6.4,1l-2.8-7.4c-0.2-0.4-0.8-0.4-0.9,0l-3.2,8.5c-2.7,0.4-4.7,0.7-4.8,0.7c-0.1,0-0.1,0.1-0.1,0.1
	c0,0-0.1,0.1-0.1,0.1l-0.6,1.4c-0.1,0.2,0.1,0.4,0.3,0.4l4.4-0.7l-0.2,0.5l-4.8,0.7c-0.1,0-0.2,0.1-0.2,0.2l-0.6,1.4
	c-0.1,0.2,0.1,0.4,0.3,0.4l4.4-0.7L42,59c-0.1,0.3,0.1,0.7,0.5,0.7H45c0.2,0,0.5-0.1,0.6-0.4l1.2-3l3.1-7.5c0.1-0.2,0.4-0.2,0.5,0
	l3,7.1c0.1,0.2-0.1,0.4-0.2,0.4H49c-0.2,0-0.5,0.1-0.6,0.4l-0.9,2.2c-0.2,0.4,0.1,0.8,0.6,0.8h9.7c0.4,0,0.6-0.4,0.5-0.7l-3.2-7
	l3.2-0.5c0.1,0,0.2-0.1,0.2-0.2l0.6-1.4c0.1-0.2-0.1-0.5-0.3-0.4l-4.5,0.7l-0.2-0.4l5.2-0.8c0.1,0,0.2-0.1,0.2-0.2l0.6-1.4
	C60.3,47.2,60.1,46.9,59.9,47z"/>
</svg>
